<?xml version="1.0" standalone="no"?>
<!DOCTYPE svg PUBLIC "-//W3C//DTD SVG 20010904//EN"
 "http://www.w3.org/TR/2001/REC-SVG-20010904/DTD/svg10.dtd">
<svg version="1.0" xmlns="http://www.w3.org/2000/svg"
 width="24.000000pt" height="24.000000pt" viewBox="0 0 512.000000 512.000000"
 preserveAspectRatio="xMidYMid meet">

<g transform="translate(0.000000,512.000000) scale(0.100000,-0.100000)"
fill="#dc3545" stroke="none">
<path d="M422 5109 c-202 -34 -378 -213 -411 -420 -15 -89 -15 -4169 0 -4258
34 -211 209 -386 420 -420 89 -15 4169 -15 4258 0 211 34 386 209 420 420 15
89 15 4169 0 4258 -34 211 -209 386 -420 420 -80 13 -4189 13 -4267 0z m528
-1194 c130 -40 222 -106 289 -205 74 -111 105 -226 116 -432 l7 -128 -206 0
-206 0 0 98 c0 112 -21 205 -53 241 -55 59 -172 79 -254 42 -105 -48 -140
-218 -81 -395 41 -124 133 -234 400 -479 203 -186 307 -336 364 -522 26 -83
28 -103 28 -270 1 -202 -9 -255 -69 -383 -112 -238 -388 -353 -710 -297 -185
33 -323 131 -398 285 -57 116 -69 174 -74 368 l-6 172 200 0 200 0 5 -142 c6
-162 19 -209 74 -257 43 -38 104 -55 173 -47 90 11 141 50 167 128 22 68 16
250 -12 329 -45 127 -98 191 -429 509 -190 183 -291 331 -336 495 -38 140 -40
346 -5 485 59 229 234 387 471 424 66 10 290 -3 345 -19z m965 -57 c3 -24 44
-468 90 -988 47 -520 88 -961 92 -980 5 -28 200 1890 203 1988 l0 22 235 0
235 0 0 -22 c3 -98 198 -2016 203 -1988 4 19 45 460 92 980 46 520 87 964 90
988 l6 42 186 0 185 0 -5 -22 c-3 -13 -65 -618 -139 -1346 l-133 -1322 -267 0
c-148 0 -268 3 -267 8 2 36 -188 1778 -193 1765 -5 -14 -189 -1738 -188 -1765
0 -5 -128 -8 -285 -8 -223 0 -285 3 -285 13 0 11 -146 1454 -235 2321 -19 187
-35 343 -35 348 0 4 92 8 204 8 l205 0 6 -42z m2680 0 c4 -24 102 -628 219
-1343 l212 -1300 -209 -3 c-116 -1 -212 0 -215 2 -2 3 -19 107 -38 233 -18
125 -36 243 -39 261 l-6 32 -237 -2 -236 -3 -38 -255 c-20 -140 -37 -258 -37
-262 -1 -5 -91 -8 -201 -8 l-200 0 5 23 c3 12 97 589 210 1282 113 693 210
1288 216 1323 l11 62 288 0 289 0 6 -42z"/>
<path d="M4277 3390 c-8 -42 -177 -1254 -177 -1269 0 -7 62 -11 185 -11 102 0
185 3 185 8 -1 4 -43 300 -94 657 -65 456 -95 640 -99 615z"/>
</g>
</svg>
